<svg xmlns="http://www.w3.org/2000/svg" width="164" height="160" fill="none" viewBox="0 0 164 160"><path fill="#E3F1EB" fill-opacity=".8" d="M86.1129 159.998C121.532 159.713 150.161 122.718 151.821 87.5728C153.663 48.5938 121.761 23.9768 116.219 19.8778C96.9383 5.61813 59.0727 -10.0044 32.9886 8.3248C3.99903 28.6957 10.9467 75.977 19.7287 99.7612C22.0312 105.996 42.9817 160.345 86.1129 159.998V159.998Z"/><g style="mix-blend-mode:multiply" opacity=".2"><path fill="#3A7EC1" d="M68.7292 38.826C74.7963 38.826 80.6752 39.4198 86.2648 40.5327C93.5877 41.991 101.243 40.6114 107.541 36.6136C116.926 30.6568 129.174 29.1469 140.613 33.6077C159.27 40.8828 168.7 61.2769 161.675 79.1587C158.24 87.9014 151.508 94.4195 143.342 97.9514C137.649 100.414 132.686 104.372 129.321 109.569C118.529 126.236 95.454 137.752 68.7298 137.752C31.6704 137.752 1.62773 115.607 1.62773 88.2891C1.62773 60.9713 31.6704 38.826 68.7298 38.826H68.7292Z"/></g><path fill="#fff" d="M67.1013 34.4725C73.1684 34.4725 79.0472 35.0663 84.6369 36.1792C91.9598 37.6375 99.6149 36.2579 105.913 32.2601C115.298 26.3033 127.546 24.7934 138.985 29.2542C157.642 36.5293 167.072 56.9233 160.047 74.8052C156.612 83.5479 149.88 90.066 141.714 93.5979C136.021 96.0603 131.058 100.019 127.693 105.216C116.901 121.883 93.8261 133.399 67.1019 133.399C30.0424 133.399 -0.000198364 111.253 -0.000198364 83.9356C-0.000198364 56.6178 30.0424 34.4725 67.1019 34.4725H67.1013Z"/><path fill="#4BB748" d="M147.448 134.549C148.677 134.549 149.673 133.557 149.673 132.332C149.673 131.108 148.677 130.116 147.448 130.116C146.219 130.116 145.223 131.108 145.223 132.332C145.223 133.557 146.219 134.549 147.448 134.549Z"/><path fill="#4BB748" d="M86.5641 148.694C86.8998 146.633 85.4952 144.692 83.4268 144.357C81.3584 144.023 79.4095 145.422 79.0737 147.483C78.738 149.544 80.1426 151.485 82.211 151.82C84.2794 152.154 86.2283 150.755 86.5641 148.694Z"/><path fill="#4BB748" d="M114.52 16.0767C115.011 13.0615 112.956 10.2205 109.93 9.73112C106.903 9.2417 104.052 11.2892 103.561 14.3043C103.069 17.3194 105.124 20.1604 108.151 20.6499C111.177 21.1393 114.028 19.0918 114.52 16.0767Z"/><path fill="#27AE60" d="M48.4694 70.333C47.5414 70.333 46.8108 70.1943 46.2774 69.917C45.7441 69.629 45.3601 69.1917 45.1254 68.605C44.9014 68.0077 44.7894 67.2557 44.7894 66.349C44.7894 65.4317 44.9014 64.6743 45.1254 64.077C45.3601 63.4797 45.7441 63.037 46.2774 62.749C46.8108 62.461 47.5414 62.317 48.4694 62.317H51.8614V69.597H50.3734V63.133L50.9814 63.661H48.4694C47.9041 63.661 47.4614 63.7303 47.1414 63.869C46.8214 63.997 46.5974 64.2583 46.4694 64.653C46.3414 65.037 46.2774 65.6023 46.2774 66.349C46.2774 67.085 46.3414 67.645 46.4694 68.029C46.5974 68.4023 46.8161 68.6583 47.1254 68.797C47.4454 68.9357 47.8934 69.005 48.4694 69.005H53.5734V70.333H48.4694ZM53.5734 70.333V69.005C53.7121 69.005 53.7974 69.0637 53.8294 69.181C53.8721 69.2983 53.8934 69.4583 53.8934 69.661C53.8934 69.8637 53.8721 70.029 53.8294 70.157C53.7974 70.2743 53.7121 70.333 53.5734 70.333ZM46.8054 61.021V59.469H48.3094V61.021H46.8054ZM48.9974 61.021V59.469H50.5014V61.021H48.9974ZM56.9633 70.333V69.005H58.6913V70.333H56.9633ZM55.4753 70.333V58.909H56.9633V70.333H55.4753ZM53.5713 70.333V69.005H55.4753V70.333H53.5713ZM53.5713 70.333C53.4327 70.333 53.3473 70.2743 53.3153 70.157C53.2727 70.029 53.2513 69.8637 53.2513 69.661C53.2513 69.4583 53.2727 69.2983 53.3153 69.181C53.3473 69.0637 53.4327 69.005 53.5713 69.005V70.333ZM58.6913 70.333V69.005C58.8193 69.005 58.9047 69.0637 58.9473 69.181C58.99 69.2983 59.0113 69.4583 59.0113 69.661C59.0113 69.8637 58.99 70.029 58.9473 70.157C58.9047 70.2743 58.8193 70.333 58.6913 70.333ZM61.9123 70.333V69.005H63.6243V70.333H61.9123ZM58.6963 70.333V69.005H61.1763L60.4083 69.613V62.317H61.9123V70.333H58.6963ZM58.6963 70.333C58.5577 70.333 58.4723 70.2743 58.4403 70.157C58.3977 70.029 58.3763 69.8637 58.3763 69.661C58.3763 69.4583 58.3977 69.2983 58.4403 69.181C58.4723 69.0637 58.5577 69.005 58.6963 69.005V70.333ZM63.6243 70.333V69.005C63.763 69.005 63.8483 69.0637 63.8803 69.181C63.923 69.2983 63.9443 69.4583 63.9443 69.661C63.9443 69.8637 63.923 70.029 63.8803 70.157C63.8483 70.2743 63.763 70.333 63.6243 70.333ZM60.3603 60.845C60.179 60.621 60.0403 60.4077 59.9443 60.205C59.8483 59.9917 59.8003 59.7677 59.8003 59.533C59.8003 59.213 59.8803 58.925 60.0403 58.669C60.211 58.413 60.4297 58.2103 60.6963 58.061C60.9737 57.9117 61.267 57.837 61.5763 57.837C61.7577 57.837 61.939 57.8637 62.1203 57.917C62.3017 57.9703 62.4617 58.0397 62.6003 58.125L62.1523 58.909C62.067 58.8557 61.9817 58.8237 61.8963 58.813C61.811 58.7917 61.7257 58.781 61.6403 58.781C61.3843 58.781 61.187 58.8503 61.0483 58.989C60.9097 59.1277 60.8403 59.309 60.8403 59.533C60.8403 59.6717 60.867 59.805 60.9203 59.933C60.9737 60.0503 61.059 60.1837 61.1763 60.333L60.3603 60.845ZM59.4803 60.877V59.949H62.8243V60.877H59.4803ZM72.3062 70.333C71.9222 70.333 71.5435 70.2637 71.1702 70.125C70.8075 69.9757 70.4609 69.7463 70.1302 69.437L71.0742 68.445C71.3089 68.637 71.5222 68.781 71.7142 68.877C71.9062 68.9623 72.1035 69.005 72.3062 69.005H75.2022L74.5462 69.645V65.901C74.5462 65.709 74.5249 65.4423 74.4822 65.101C74.4502 64.749 74.3969 64.3543 74.3222 63.917C74.2582 63.469 74.1782 63.0157 74.0822 62.557L75.5382 62.317C75.6129 62.701 75.6875 63.1223 75.7622 63.581C75.8369 64.0397 75.9009 64.477 75.9542 64.893C76.0075 65.309 76.0342 65.645 76.0342 65.901V70.333H72.3062ZM63.6182 70.333V69.005H65.9542L65.5862 69.373V63.933H67.0742V70.333H63.6182ZM67.0742 70.333V69.005H68.7382C69.1009 69.005 69.3729 68.9517 69.5542 68.845C69.7355 68.7383 69.8635 68.525 69.9382 68.205C70.0129 67.885 70.0502 67.4157 70.0502 66.797V63.133H71.5542V66.797C71.5542 67.661 71.4529 68.3543 71.2502 68.877C71.0582 69.3997 70.7595 69.773 70.3542 69.997C69.9489 70.221 69.4102 70.333 68.7382 70.333H67.0742ZM63.6182 70.333C63.4795 70.333 63.3942 70.2743 63.3622 70.157C63.3195 70.029 63.2982 69.8637 63.2982 69.661C63.2982 69.4583 63.3195 69.2983 63.3622 69.181C63.3942 69.0637 63.4795 69.005 63.6182 69.005V70.333ZM78.7159 70.333V58.909H80.2039V70.333H78.7159ZM78.6679 57.789C78.4866 57.565 78.3479 57.3517 78.2519 57.149C78.1559 56.9357 78.1079 56.7117 78.1079 56.477C78.1079 56.157 78.1879 55.869 78.3479 55.613C78.5186 55.357 78.7373 55.1543 79.0039 55.005C79.2813 54.8557 79.5746 54.781 79.8839 54.781C80.0653 54.781 80.2466 54.8077 80.4279 54.861C80.6093 54.9143 80.7693 54.9837 80.9079 55.069L80.4599 55.853C80.3746 55.7997 80.2893 55.7677 80.2039 55.757C80.1186 55.7357 80.0333 55.725 79.9479 55.725C79.6919 55.725 79.4946 55.7943 79.3559 55.933C79.2173 56.0717 79.1479 56.253 79.1479 56.477C79.1479 56.6157 79.1746 56.749 79.2279 56.877C79.2813 56.9943 79.3666 57.1277 79.4839 57.277L78.6679 57.789ZM77.7879 57.821V56.893H81.1319V57.821H77.7879ZM42.6726 98.333C41.7446 98.333 41.0139 98.1943 40.4806 97.917C39.9472 97.629 39.5632 97.1917 39.3286 96.605C39.1046 96.0077 38.9926 95.2557 38.9926 94.349C38.9926 93.4317 39.1046 92.6743 39.3286 92.077C39.5632 91.4797 39.9472 91.037 40.4806 90.749C41.0139 90.461 41.7446 90.317 42.6726 90.317H46.0646V97.597H44.5766V91.133L45.1846 91.661H42.6726C42.1072 91.661 41.6646 91.7303 41.3446 91.869C41.0246 91.997 40.8006 92.2583 40.6726 92.653C40.5446 93.037 40.4806 93.6023 40.4806 94.349C40.4806 95.085 40.5446 95.645 40.6726 96.029C40.8006 96.4023 41.0192 96.6583 41.3286 96.797C41.6486 96.9357 42.0966 97.005 42.6726 97.005H47.7766V98.333H42.6726ZM47.7766 98.333V97.005C47.9152 97.005 48.0006 97.0637 48.0326 97.181C48.0752 97.2983 48.0966 97.4583 48.0966 97.661C48.0966 97.8637 48.0752 98.029 48.0326 98.157C48.0006 98.2743 47.9152 98.333 47.7766 98.333ZM41.0086 89.021V87.469H42.5126V89.021H41.0086ZM43.2006 89.021V87.469H44.7046V89.021H43.2006ZM51.2144 98.333V97.005H53.0224V98.333H51.2144ZM53.0224 98.333V97.005C53.1611 97.005 53.2464 97.0637 53.2784 97.181C53.3211 97.2983 53.3424 97.4583 53.3424 97.661C53.3424 97.8637 53.3211 98.029 53.2784 98.157C53.2464 98.2743 53.1611 98.333 53.0224 98.333ZM47.7744 98.333V97.005H50.4944L49.7264 97.613V90.317H51.2144V98.333H47.7744ZM47.7744 98.333C47.6358 98.333 47.5504 98.2743 47.5184 98.157C47.4758 98.029 47.4544 97.8637 47.4544 97.661C47.4544 97.4583 47.4758 97.2983 47.5184 97.181C47.5504 97.0637 47.6358 97.005 47.7744 97.005V98.333ZM48.4144 101.341V99.789H49.9184V101.341H48.4144ZM50.6064 101.341V99.789H52.1104V101.341H50.6064ZM56.4164 98.333V97.005H58.1444V98.333H56.4164ZM54.9284 98.333V86.909H56.4164V98.333H54.9284ZM53.0244 98.333V97.005H54.9284V98.333H53.0244ZM53.0244 98.333C52.8858 98.333 52.8004 98.2743 52.7684 98.157C52.7258 98.029 52.7044 97.8637 52.7044 97.661C52.7044 97.4583 52.7258 97.2983 52.7684 97.181C52.8004 97.0637 52.8858 97.005 53.0244 97.005V98.333ZM58.1444 98.333V97.005C58.2724 97.005 58.3578 97.0637 58.4004 97.181C58.4431 97.2983 58.4644 97.4583 58.4644 97.661C58.4644 97.8637 58.4431 98.029 58.4004 98.157C58.3578 98.2743 58.2724 98.333 58.1444 98.333ZM61.4934 98.221C60.9281 97.7303 60.4961 97.1757 60.1974 96.557C59.8988 95.9383 59.7494 95.2823 59.7494 94.589C59.7494 93.9703 59.8614 93.3997 60.0854 92.877C60.3094 92.3543 60.6081 91.901 60.9814 91.517C61.3654 91.133 61.8188 90.8397 62.3414 90.637C62.8641 90.4237 63.4188 90.317 64.0054 90.317C64.3148 90.317 64.6454 90.349 64.9974 90.413C65.3601 90.477 65.7068 90.5677 66.0374 90.685L65.5414 91.949C65.2854 91.853 65.0294 91.7837 64.7734 91.741C64.5174 91.6877 64.2721 91.661 64.0374 91.661C63.4934 91.661 63.0081 91.789 62.5814 92.045C62.1654 92.2903 61.8401 92.6317 61.6054 93.069C61.3708 93.5063 61.2534 94.0077 61.2534 94.573C61.2534 95.6503 61.6694 96.541 62.5014 97.245L61.4934 98.221ZM58.1494 98.333V97.005H66.2134V98.333H58.1494ZM58.1494 98.333C58.0108 98.333 57.9254 98.2743 57.8934 98.157C57.8508 98.029 57.8294 97.8637 57.8294 97.661C57.8294 97.4583 57.8508 97.2983 57.8934 97.181C57.9254 97.0637 58.0108 97.005 58.1494 97.005V98.333ZM70.5477 98.333V97.005H72.4677V98.333H70.5477ZM69.0597 98.333V86.909H70.5477V98.333H69.0597ZM72.4677 98.333V97.005C72.5957 97.005 72.681 97.0637 72.7237 97.181C72.7664 97.2983 72.7877 97.4583 72.7877 97.661C72.7877 97.8637 72.7664 98.029 72.7237 98.157C72.681 98.2743 72.5957 98.333 72.4677 98.333ZM81.0859 98.333V97.005H82.7979V98.333H81.0859ZM72.4619 98.333V97.005H80.3659L79.5979 97.677V91.133L80.2219 91.661H77.6939C77.1179 91.661 76.6699 91.7303 76.3499 91.869C76.0299 92.0077 75.8059 92.269 75.6779 92.653C75.5606 93.037 75.5019 93.597 75.5019 94.333C75.5019 95.069 75.5606 95.629 75.6779 96.013C75.8059 96.397 76.0299 96.6583 76.3499 96.797C76.6699 96.9357 77.1179 97.005 77.6939 97.005V98.045C76.7659 98.045 76.0353 97.9277 75.5019 97.693C74.9686 97.4583 74.5846 97.069 74.3499 96.525C74.1259 95.981 74.0139 95.2503 74.0139 94.333C74.0139 93.4263 74.1259 92.6797 74.3499 92.093C74.5846 91.4957 74.9686 91.053 75.5019 90.765C76.0353 90.4663 76.7659 90.317 77.6939 90.317H81.0859V98.333H72.4619ZM72.4619 98.333C72.3233 98.333 72.2379 98.2743 72.2059 98.157C72.1633 98.029 72.1419 97.8637 72.1419 97.661C72.1419 97.4583 72.1633 97.2983 72.2059 97.181C72.2379 97.0637 72.3233 97.005 72.4619 97.005V98.333ZM82.7979 98.333V97.005C82.9366 97.005 83.0219 97.0637 83.0539 97.181C83.0966 97.2983 83.1179 97.4583 83.1179 97.661C83.1179 97.8637 83.0966 98.029 83.0539 98.157C83.0219 98.2743 82.9366 98.333 82.7979 98.333ZM77.1819 88.877V87.325H78.6859V88.877H77.1819ZM82.8057 98.333V97.005H85.5257L84.7577 97.613V90.317H86.2457V98.333H82.8057ZM82.8057 98.333C82.667 98.333 82.5817 98.2743 82.5497 98.157C82.507 98.029 82.4857 97.8637 82.4857 97.661C82.4857 97.4583 82.507 97.2983 82.5497 97.181C82.5817 97.0637 82.667 97.005 82.8057 97.005V98.333ZM83.4457 89.021V87.469H84.9497V89.021H83.4457ZM85.6377 89.021V87.469H87.1417V89.021H85.6377Z"/><path fill="#4BB748" d="M130.335 73.3162C131.558 72.8994 132.22 71.5907 131.812 70.393C130.539 66.6503 127.61 63.6028 123.979 62.2456C123.368 62.0183 122.72 61.7987 122.067 61.5806C120.18 60.9458 118.228 60.2942 116.962 59.2013C115.213 57.6919 114.616 54.8608 115.544 52.4587C116.716 49.4218 120.135 47.9763 121.552 47.4933C129.616 44.7462 132.123 50.9867 132.383 51.7064C132.811 52.8916 134.218 53.3221 135.348 53.0824C136.562 52.6606 137.213 51.3561 136.803 50.1667C135.451 46.2331 130.211 39.709 120.079 43.161C115.751 44.6357 112.51 47.448 111.181 50.8819C109.56 55.0688 110.656 59.9217 113.852 62.6756C115.798 64.3549 118.297 65.1926 120.503 65.9363C121.096 66.1236 121.684 66.325 122.266 66.5408C124.697 67.4951 126.567 69.4547 127.382 71.9023C127.578 72.4776 127.999 72.9498 128.552 73.2148C129.106 73.4799 129.747 73.5164 130.335 73.3162Z"/><path fill="#4BB748" d="M130.168 79.2318C130.079 80.182 130.591 81.0812 131.457 81.4962C132.324 81.9114 133.368 81.7577 134.087 81.1091C134.529 80.7283 134.8 80.1918 134.84 79.6188C134.929 78.6684 134.417 77.7692 133.551 77.3542C132.684 76.9389 131.64 77.0927 130.921 77.741C130.484 78.1125 130.2 78.6739 130.168 79.2318Z"/></svg>