<svg xmlns="http://www.w3.org/2000/svg" width="164" height="161" fill="none" viewBox="0 0 164 161"><path fill="#F4EAF1" fill-opacity=".8" d="M86.1128 160.998C121.532 160.711 150.161 123.485 151.821 88.1202C153.663 48.8975 121.761 24.1267 116.219 20.002C96.9382 5.65324 59.0726 -10.0669 32.9886 8.37683C3.99904 28.8751 10.9467 76.4519 19.7287 100.385C22.0312 106.659 42.9817 161.347 86.1128 160.998V160.998Z"/><g style="mix-blend-mode:multiply" opacity=".2"><path fill="#3A7EC1" d="M67.1014 39.0686C73.1685 39.0686 79.0473 39.6661 84.6369 40.786C91.9598 42.2534 99.615 40.8652 105.913 36.8424C115.298 30.8484 127.546 29.3291 138.985 33.8177C157.642 41.1383 167.072 61.6598 160.047 79.6534C156.612 88.4507 149.88 95.0096 141.714 98.5636C136.021 101.041 131.058 105.025 127.693 110.254C116.901 127.025 93.8261 138.613 67.102 138.613C30.0426 138.613 -1.52588e-05 116.329 -1.52588e-05 88.8409C-1.52588e-05 61.3523 30.0426 39.0686 67.102 39.0686H67.1014Z"/></g><path fill="#fff" d="M68.7293 34.6878C74.7964 34.6878 80.6753 35.2853 86.2649 36.4051C93.5878 37.8726 101.243 36.4843 107.541 32.4615C116.926 26.4675 129.174 24.9482 140.613 29.4369C159.27 36.7574 168.7 57.2789 161.675 75.2725C158.24 84.0699 151.508 90.6287 143.342 94.1827C137.649 96.6605 132.686 100.644 129.321 105.873C118.529 122.644 95.4541 134.232 68.7299 134.232C31.6705 134.232 1.62791 111.949 1.62791 84.46C1.62791 56.9714 31.6705 34.6878 68.7299 34.6878H68.7293Z"/><path fill="#FF8181" d="M147.448 135.39C148.676 135.39 149.673 134.391 149.673 133.16C149.673 131.928 148.676 130.929 147.448 130.929C146.219 130.929 145.223 131.928 145.223 133.16C145.223 134.391 146.219 135.39 147.448 135.39Z"/><path fill="#FF8181" d="M86.564 149.623C86.8998 147.55 85.4952 145.596 83.4268 145.259C81.3584 144.923 79.4095 146.331 79.0737 148.405C78.738 150.478 80.1426 152.432 82.211 152.769C84.2794 153.105 86.2283 151.697 86.564 149.623Z"/><path fill="#FF8181" d="M114.519 16.1769C115.011 13.1429 112.956 10.2842 109.929 9.79171C106.903 9.29923 104.052 11.3595 103.56 14.3935C103.069 17.4274 105.124 20.2862 108.15 20.7787C111.177 21.2712 114.028 19.2109 114.519 16.1769Z"/><path fill="url(#paint0_linear_3726_573)" d="M38.924 70.4604C37.3027 70.4604 36.0814 70.1671 35.26 69.5804C34.4387 68.9938 34.028 68.0978 34.028 66.8924C34.028 66.6364 34.044 66.3644 34.076 66.0764C34.1187 65.7778 34.1614 65.4898 34.204 65.2124C34.2574 64.9351 34.3054 64.6951 34.348 64.4924C34.3907 64.2898 34.4227 64.1458 34.444 64.0604L35.9 64.3324C35.868 64.5031 35.82 64.7324 35.756 65.0204C35.7027 65.3084 35.6494 65.6178 35.596 65.9484C35.5427 66.2791 35.516 66.5938 35.516 66.8924C35.516 67.4258 35.628 67.8578 35.852 68.1884C36.0867 68.5191 36.4547 68.7591 36.956 68.9084C37.4574 69.0578 38.124 69.1324 38.956 69.1324H43.532V62.4444H45.036V70.4604H38.924ZM37.676 62.7004V61.1484H39.18V62.7004H37.676ZM39.868 62.7004V61.1484H41.372V62.7004H39.868ZM47.7358 70.4604V59.0364H49.2238V70.4604H47.7358ZM59.0038 70.4604V69.1324H67.2118L65.8838 70.3164V66.6524C65.8838 66.0018 65.7931 65.4684 65.6118 65.0524C65.4411 64.6258 65.1798 64.3111 64.8278 64.1084C64.4758 63.8951 64.0385 63.7884 63.5158 63.7884C63.0571 63.7884 62.6251 63.8684 62.2198 64.0284C61.8145 64.1884 61.4358 64.4018 61.0838 64.6684C60.7425 64.9244 60.4225 65.2071 60.1238 65.5164C59.8358 65.8258 59.5691 66.1351 59.3238 66.4444C59.0785 66.7538 58.8598 67.0311 58.6678 67.2764L58.2518 66.0284C58.5505 65.6551 58.8438 65.2924 59.1318 64.9404C59.4198 64.5778 59.7131 64.2471 60.0118 63.9484C60.3211 63.6498 60.6518 63.3884 61.0038 63.1644C61.3558 62.9404 61.7398 62.7644 62.1558 62.6364C62.5718 62.5084 63.0465 62.4444 63.5798 62.4444C64.3265 62.4444 64.9451 62.5724 65.4358 62.8284C65.9265 63.0844 66.3105 63.4204 66.5878 63.8364C66.8758 64.2524 67.0785 64.7111 67.1958 65.2124C67.3131 65.7031 67.3718 66.1831 67.3718 66.6524V70.4604H59.0038ZM54.0918 65.3724V64.0284H57.5158V65.3724H54.0918ZM57.5158 70.4604V62.4444H59.0038V70.4604H57.5158ZM51.0038 74.1244C50.8651 74.1244 50.7211 74.1138 50.5718 74.0924C50.4118 74.0818 50.2518 74.0711 50.0918 74.0604L50.2198 72.7324C50.3798 72.7431 50.5291 72.7538 50.6678 72.7644C50.7958 72.7751 50.9025 72.7804 50.9878 72.7804C51.4678 72.7804 51.8518 72.5991 52.1398 72.2364C52.4385 71.8738 52.5878 71.3671 52.5878 70.7164V62.4444H54.0918V70.7164C54.0918 71.3884 53.9585 71.9804 53.6918 72.4924C53.4251 73.0044 53.0625 73.4044 52.6038 73.6924C52.1451 73.9804 51.6118 74.1244 51.0038 74.1244ZM61.8678 61.2924V59.7404H63.3718V61.2924H61.8678ZM71.5519 70.4604V69.1324H73.4719V70.4604H71.5519ZM70.0639 70.4604V59.0364H71.5519V70.4604H70.0639ZM73.4719 70.4604V69.1324C73.5999 69.1324 73.6853 69.1911 73.7279 69.3084C73.7706 69.4258 73.7919 69.5858 73.7919 69.7884C73.7919 69.9911 73.7706 70.1564 73.7279 70.2844C73.6853 70.4018 73.5999 70.4604 73.4719 70.4604ZM81.4822 70.4604V69.1324H83.2102V70.4604H81.4822ZM73.4662 70.4604V69.1324H80.4742L79.9942 69.5324V65.8364C79.9942 65.1644 79.7808 64.6578 79.3542 64.3164C78.9382 63.9751 78.2875 63.8044 77.4022 63.8044C77.1355 63.8044 76.7515 63.8258 76.2502 63.8684C75.7595 63.9111 75.2368 63.9751 74.6822 64.0604L74.5222 62.8444C74.9595 62.7378 75.4342 62.6471 75.9462 62.5724C76.4582 62.4871 76.9542 62.4444 77.4342 62.4444C78.2662 62.4444 78.9808 62.5778 79.5782 62.8444C80.1862 63.1111 80.6555 63.5004 80.9862 64.0124C81.3168 64.5138 81.4822 65.1218 81.4822 65.8364V70.4604H73.4662ZM73.4662 70.4604C73.3275 70.4604 73.2422 70.4018 73.2102 70.2844C73.1675 70.1564 73.1462 69.9911 73.1462 69.7884C73.1462 69.5858 73.1675 69.4258 73.2102 69.3084C73.2422 69.1911 73.3275 69.1324 73.4662 69.1324V70.4604ZM83.2102 70.4604V69.1324C83.3382 69.1324 83.4235 69.1911 83.4662 69.3084C83.5088 69.4258 83.5302 69.5858 83.5302 69.7884C83.5302 69.9911 83.5088 70.1564 83.4662 70.2844C83.4235 70.4018 83.3382 70.4604 83.2102 70.4604ZM83.2162 70.4604V69.1324H91.8402L90.8962 69.8364V66.5244C90.8962 65.8204 90.8162 65.2711 90.6562 64.8764C90.5068 64.4818 90.2402 64.1991 89.8562 64.0284C89.4722 63.8578 88.9495 63.7724 88.2882 63.7724C87.8402 63.7724 87.3975 63.8044 86.9602 63.8684C86.5228 63.9324 86.1815 64.0178 85.9362 64.1244L86.8482 63.2284C86.7842 63.4738 86.7202 63.7884 86.6562 64.1724C86.5922 64.5564 86.5388 64.9724 86.4962 65.4204C86.4535 65.8578 86.4322 66.2951 86.4322 66.7324C86.4322 67.1698 86.4535 67.6018 86.4962 68.0284C86.5388 68.4551 86.5868 68.8284 86.6402 69.1484C86.6935 69.4684 86.7362 69.6871 86.7682 69.8044L85.3442 70.2044C85.3015 70.0658 85.2482 69.8258 85.1842 69.4844C85.1308 69.1431 85.0775 68.7324 85.0242 68.2524C84.9815 67.7724 84.9602 67.2658 84.9602 66.7324C84.9602 66.2098 84.9815 65.7031 85.0242 65.2124C85.0775 64.7111 85.1362 64.2578 85.2002 63.8524C85.2748 63.4471 85.3442 63.1218 85.4082 62.8764C85.6535 62.7804 86.0322 62.6844 86.5442 62.5884C87.0668 62.4924 87.6482 62.4444 88.2882 62.4444C89.1948 62.4444 89.9522 62.5778 90.5602 62.8444C91.1788 63.1111 91.6375 63.5431 91.9362 64.1404C92.2455 64.7271 92.4002 65.5218 92.4002 66.5244V70.4604H83.2162ZM83.2162 70.4604C83.0775 70.4604 82.9922 70.4018 82.9602 70.2844C82.9175 70.1564 82.8962 69.9911 82.8962 69.7884C82.8962 69.5858 82.9175 69.4258 82.9602 69.3084C82.9922 69.1911 83.0775 69.1324 83.2162 69.1324V70.4604ZM40.0515 98.4604V94.6684C40.0515 93.6444 40.2062 92.8231 40.5155 92.2044C40.8248 91.5858 41.2835 91.1378 41.8915 90.8604C42.5102 90.5831 43.2728 90.4444 44.1795 90.4444C45.0968 90.4444 45.8595 90.5831 46.4675 90.8604C47.0755 91.1378 47.5342 91.5858 47.8435 92.2044C48.1528 92.8231 48.3075 93.6444 48.3075 94.6684V98.4604H40.0515ZM41.5395 97.7884L40.7875 97.1324H47.5715L46.8195 97.7884V94.7004C46.8195 93.9644 46.7395 93.3831 46.5795 92.9564C46.4302 92.5298 46.1582 92.2311 45.7635 92.0604C45.3795 91.8791 44.8515 91.7884 44.1795 91.7884C43.5075 91.7884 42.9795 91.8791 42.5955 92.0604C42.2115 92.2311 41.9395 92.5298 41.7795 92.9564C41.6195 93.3831 41.5395 93.9644 41.5395 94.7004V97.7884ZM42.3715 89.1484V87.5964H43.8755V89.1484H42.3715ZM44.5635 89.1484V87.5964H46.0675V89.1484H44.5635ZM62.4627 98.4604C62.0787 98.4604 61.7001 98.3911 61.3267 98.2524C60.9534 98.1031 60.5961 97.8738 60.2547 97.5644L61.2307 96.5724C61.4547 96.7644 61.6627 96.9084 61.8547 97.0044C62.0574 97.0898 62.2601 97.1324 62.4627 97.1324H65.3427L64.6867 97.7724V94.0284C64.6867 93.8364 64.6654 93.5698 64.6227 93.2284C64.5907 92.8764 64.5374 92.4818 64.4627 92.0444C64.3987 91.5964 64.3241 91.1431 64.2387 90.6844L65.6947 90.4444C65.7694 90.8284 65.8441 91.2498 65.9187 91.7084C65.9934 92.1671 66.0521 92.6044 66.0947 93.0204C66.1481 93.4364 66.1747 93.7724 66.1747 94.0284V98.4604H62.4627ZM52.3027 93.3724V92.0284H55.7267V93.3724H52.3027ZM55.7267 98.4604V90.4444H57.2147V98.4604H55.7267ZM57.2147 98.4604V97.1324H58.8787C59.2307 97.1324 59.5027 97.0791 59.6947 96.9724C59.8867 96.8658 60.0201 96.6524 60.0947 96.3324C60.1694 96.0124 60.2067 95.5431 60.2067 94.9244V91.2604H61.6947V94.9244C61.6947 95.7884 61.5987 96.4818 61.4067 97.0044C61.2147 97.5271 60.9107 97.9004 60.4947 98.1244C60.0787 98.3484 59.5401 98.4604 58.8787 98.4604H57.2147ZM49.2147 102.124C49.0761 102.124 48.9321 102.114 48.7827 102.092C48.6227 102.082 48.4627 102.071 48.3027 102.06L48.4307 100.732C48.5907 100.743 48.7401 100.754 48.8787 100.764C49.0067 100.775 49.1134 100.78 49.1987 100.78C49.6787 100.78 50.0627 100.599 50.3507 100.236C50.6494 99.8738 50.7987 99.3671 50.7987 98.7164V90.4444H52.3027V98.7164C52.3027 99.3884 52.1694 99.9804 51.9027 100.492C51.6361 101.004 51.2734 101.404 50.8147 101.692C50.3561 101.98 49.8227 102.124 49.2147 102.124ZM60.2867 86.7964V85.3724H61.6307V86.7964H60.2867ZM59.0227 89.0044V87.4524H60.4947V89.0044H59.0227ZM61.4067 89.0044V87.4524H62.8787V89.0044H61.4067ZM70.3566 98.4604V97.1324H72.2766V98.4604H70.3566ZM68.8686 98.4604V87.0364H70.3566V98.4604H68.8686ZM72.2766 98.4604V97.1324C72.4046 97.1324 72.4899 97.1911 72.5326 97.3084C72.5753 97.4258 72.5966 97.5858 72.5966 97.7884C72.5966 97.9911 72.5753 98.1564 72.5326 98.2844C72.4899 98.4018 72.4046 98.4604 72.2766 98.4604ZM75.4869 98.4604V97.1324H77.1989V98.4604H75.4869ZM72.2709 98.4604V97.1324H74.7509L73.9829 97.7404V90.4444H75.4869V98.4604H72.2709ZM72.2709 98.4604C72.1322 98.4604 72.0469 98.4018 72.0149 98.2844C71.9722 98.1564 71.9509 97.9911 71.9509 97.7884C71.9509 97.5858 71.9722 97.4258 72.0149 97.3084C72.0469 97.1911 72.1322 97.1324 72.2709 97.1324V98.4604ZM77.1989 98.4604V97.1324C77.3375 97.1324 77.4229 97.1911 77.4549 97.3084C77.4975 97.4258 77.5189 97.5858 77.5189 97.7884C77.5189 97.9911 77.4975 98.1564 77.4549 98.2844C77.4229 98.4018 77.3375 98.4604 77.1989 98.4604ZM73.9829 101.484V99.9324H75.4869V101.484H73.9829ZM77.1927 98.4604V97.1324H85.8167L84.8727 97.8364V94.5244C84.8727 93.8204 84.7927 93.2711 84.6327 92.8764C84.4834 92.4818 84.2167 92.1991 83.8327 92.0284C83.4487 91.8578 82.9261 91.7724 82.2647 91.7724C81.8167 91.7724 81.3741 91.8044 80.9367 91.8684C80.4994 91.9324 80.1581 92.0178 79.9127 92.1244L80.8247 91.2284C80.7607 91.4738 80.6967 91.7884 80.6327 92.1724C80.5687 92.5564 80.5154 92.9724 80.4727 93.4204C80.4301 93.8578 80.4087 94.2951 80.4087 94.7324C80.4087 95.1698 80.4301 95.6018 80.4727 96.0284C80.5154 96.4551 80.5634 96.8284 80.6167 97.1484C80.6701 97.4684 80.7127 97.6871 80.7447 97.8044L79.3207 98.2044C79.2781 98.0658 79.2247 97.8258 79.1607 97.4844C79.1074 97.1431 79.0541 96.7324 79.0007 96.2524C78.9581 95.7724 78.9367 95.2658 78.9367 94.7324C78.9367 94.2098 78.9581 93.7031 79.0007 93.2124C79.0541 92.7111 79.1127 92.2578 79.1767 91.8524C79.2514 91.4471 79.3207 91.1218 79.3847 90.8764C79.6301 90.7804 80.0087 90.6844 80.5207 90.5884C81.0434 90.4924 81.6247 90.4444 82.2647 90.4444C83.1714 90.4444 83.9287 90.5778 84.5367 90.8444C85.1554 91.1111 85.6141 91.5431 85.9127 92.1404C86.2221 92.7271 86.3767 93.5218 86.3767 94.5244V98.4604H77.1927ZM77.1927 98.4604C77.0541 98.4604 76.9687 98.4018 76.9367 98.2844C76.8941 98.1564 76.8727 97.9911 76.8727 97.7884C76.8727 97.5858 76.8941 97.4258 76.9367 97.3084C76.9687 97.1911 77.0541 97.1324 77.1927 97.1324V98.4604Z"/><g opacity=".665"><path fill="#FF8181" d="M119.724 82.5782C111.124 79.0441 105.828 70.0973 106.842 60.8178C106.958 59.766 107.904 58.9981 108.955 59.1109C110.006 59.2237 110.764 60.1695 110.65 61.2229C109.818 68.8133 114.152 76.1345 121.187 79.0234C122.163 79.4251 122.629 80.5463 122.226 81.5281C121.823 82.5043 120.705 82.9818 119.724 82.5782Z"/></g><g opacity=".665"><path fill="#FF8181" d="M146.547 67.0379C145.496 66.9251 144.737 65.9793 144.852 64.9259C145.684 57.3355 141.35 50.0143 134.314 47.1254C133.338 46.7237 132.873 45.6025 133.276 44.6207C133.68 43.6405 134.804 43.1696 135.778 43.5706C144.377 47.1047 149.674 56.0515 148.659 65.331C148.545 66.3878 147.595 67.1488 146.547 67.0379Z"/></g><path fill="#FF8181" d="M123.725 75.8813C117.206 73.8415 113.29 67.2262 114.618 60.4968C114.825 59.456 115.837 58.7765 116.867 58.9783C117.903 59.1806 118.579 60.1891 118.374 61.229C117.427 66.0354 120.222 70.7577 124.878 72.216C125.885 72.5315 126.445 73.6092 126.127 74.6206C125.811 75.6297 124.735 76.1984 123.725 75.8813Z"/><path fill="#FF8181" d="M138.632 67.1727C137.596 66.9703 136.921 65.9623 137.126 64.9222C138.073 60.1158 135.277 55.3932 130.622 53.935C129.614 53.6197 129.055 52.542 129.373 51.5306C129.69 50.5217 130.766 49.953 131.774 50.2699C138.293 52.3097 142.209 58.925 140.881 65.6544C140.677 66.6964 139.666 67.3756 138.632 67.1727Z"/><path fill="#FF8181" d="M130.677 68.0157C127.957 69.6414 124.432 68.7476 122.819 66.0233C121.206 63.2987 122.107 59.7599 124.827 58.1342C127.547 56.5084 131.072 57.4021 132.684 60.1267C134.297 62.851 133.397 66.3899 130.677 68.0157Z"/><defs><linearGradient id="paint0_linear_3726_573" x1="22.802" x2="105.032" y1="59.823" y2="105.642" gradientUnits="userSpaceOnUse"><stop stop-color="#E15959"/><stop offset="1" stop-color="#FF8181"/></linearGradient></defs></svg>