<svg width="164" height="161" viewBox="0 0 164 161" fill="none" xmlns="http://www.w3.org/2000/svg">
<path d="M86.1131 160.998C121.532 160.711 150.162 123.485 151.822 88.1202C153.663 48.8975 121.761 24.1267 116.219 20.002C96.9386 5.65324 59.0729 -10.0669 32.9888 8.37683C3.99927 28.8751 10.9469 76.4519 19.729 100.385C22.0315 106.659 42.982 161.347 86.1131 160.998V160.998Z" fill="#ECF3FE" fill-opacity="0.8"/>
<g style="mix-blend-mode:multiply" opacity="0.2">
<path d="M68.7294 39.0686C74.7965 39.0686 80.6754 39.6661 86.265 40.786C93.5879 42.2534 101.243 40.8652 107.541 36.8424C116.926 30.8484 129.174 29.3291 140.613 33.8177C159.27 41.1383 168.7 61.6598 161.675 79.6534C158.241 88.4507 151.508 95.0096 143.343 98.5636C137.649 101.041 132.686 105.025 129.321 110.254C118.529 127.025 95.4542 138.613 68.73 138.613C31.6705 138.613 1.62787 116.329 1.62787 88.8409C1.62787 61.3523 31.6705 39.0686 68.73 39.0686H68.7294Z" fill="#3A7EC1"/>
</g>
<path d="M67.1017 34.6878C73.1688 34.6878 79.0477 35.2853 84.6373 36.4051C91.9602 37.8726 99.6154 36.4843 105.914 32.4615C115.299 26.4675 127.547 24.9482 138.985 29.4369C157.643 36.7574 167.072 57.2789 160.047 75.2725C156.613 84.0699 149.88 90.6287 141.715 94.1827C136.021 96.6605 131.058 100.644 127.694 105.873C116.902 122.644 93.8265 134.232 67.1023 134.232C30.0428 134.232 0.000183105 111.949 0.000183105 84.46C0.000183105 56.9714 30.0428 34.6878 67.1023 34.6878H67.1017Z" fill="white"/>
<path d="M147.448 135.39C148.677 135.39 149.673 134.391 149.673 133.16C149.673 131.928 148.677 130.929 147.448 130.929C146.22 130.929 145.224 131.928 145.224 133.16C145.224 134.391 146.22 135.39 147.448 135.39Z" fill="#7096DC"/>
<path d="M86.5641 149.623C86.8998 147.55 85.4952 145.596 83.4268 145.259C81.3584 144.923 79.4095 146.331 79.0737 148.405C78.738 150.478 80.1426 152.432 82.211 152.769C84.2794 153.105 86.2283 151.697 86.5641 149.623Z" fill="#7096DC"/>
<path d="M114.52 16.1769C115.011 13.1429 112.956 10.2842 109.93 9.79171C106.903 9.29923 104.052 11.3595 103.561 14.3935C103.069 17.4274 105.124 20.2862 108.151 20.7787C111.177 21.2712 114.028 19.2109 114.52 16.1769Z" fill="#7096DC"/>
<path d="M42.1029 87.0078C40.4816 87.0078 39.2602 86.7145 38.4389 86.1278C37.6176 85.5411 37.2069 84.6451 37.2069 83.4398C37.2069 83.1838 37.2229 82.9118 37.2549 82.6238C37.2976 82.3251 37.3402 82.0371 37.3829 81.7598C37.4362 81.4825 37.4842 81.2425 37.5269 81.0398C37.5696 80.8371 37.6016 80.6931 37.6229 80.6078L39.0789 80.8798C39.0469 81.0505 38.9989 81.2798 38.9349 81.5678C38.8816 81.8558 38.8282 82.1651 38.7749 82.4958C38.7216 82.8265 38.6949 83.1411 38.6949 83.4398C38.6949 83.9731 38.8069 84.4051 39.0309 84.7358C39.2656 85.0665 39.6336 85.3065 40.1349 85.4558C40.6362 85.6051 41.3029 85.6798 42.1349 85.6798H46.7109V78.9918H48.2149V87.0078H42.1029ZM40.8549 79.2478V77.6958H42.3589V79.2478H40.8549ZM43.0469 79.2478V77.6958H44.5509V79.2478H43.0469ZM52.4026 87.0078V85.6798H54.3226V87.0078H52.4026ZM50.9146 87.0078V75.5838H52.4026V87.0078H50.9146ZM54.3226 87.0078V85.6798C54.4506 85.6798 54.536 85.7385 54.5786 85.8558C54.6213 85.9731 54.6426 86.1331 54.6426 86.3358C54.6426 86.5385 54.6213 86.7038 54.5786 86.8318C54.536 86.9491 54.4506 87.0078 54.3226 87.0078ZM54.3169 87.0078V85.6798H56.8129C57.3996 85.6798 57.9596 85.5785 58.4929 85.3758C59.0369 85.1731 59.5382 84.9065 59.9969 84.5758C60.4556 84.2451 60.8502 83.8771 61.1809 83.4718C61.5222 83.0665 61.7889 82.6558 61.9809 82.2398C62.1729 81.8238 62.2689 81.4291 62.2689 81.0558V80.0798L63.0369 81.2798C62.4289 80.9598 61.8262 80.7251 61.2289 80.5758C60.6422 80.4158 60.0716 80.3358 59.5169 80.3358C58.9729 80.3358 58.4022 80.4158 57.8049 80.5758C57.2182 80.7251 56.6262 80.9598 56.0289 81.2798L56.7969 80.0798V81.0558C56.7969 81.4291 56.8929 81.8238 57.0849 82.2398C57.2769 82.6558 57.5382 83.0665 57.8689 83.4718C58.1996 83.8771 58.5942 84.2451 59.0529 84.5758C59.5116 84.9065 60.0076 85.1731 60.5409 85.3758C61.0849 85.5785 61.6502 85.6798 62.2369 85.6798H64.6369V87.0078H62.4289C61.5969 87.0078 60.8182 86.8745 60.0929 86.6078C59.3676 86.3411 58.7116 85.9891 58.1249 85.5518C57.5382 85.1038 57.0316 84.6185 56.6049 84.0958C56.1889 83.5625 55.8689 83.0345 55.6449 82.5118C55.4209 81.9785 55.3089 81.4931 55.3089 81.0558V80.1118C55.7676 79.8665 56.2369 79.6638 56.7169 79.5038C57.1969 79.3331 57.6769 79.2051 58.1569 79.1198C58.6369 79.0345 59.0902 78.9918 59.5169 78.9918C59.9649 78.9918 60.4236 79.0345 60.8929 79.1198C61.3622 79.2051 61.8369 79.3331 62.3169 79.5038C62.8076 79.6638 63.2822 79.8665 63.7409 80.1118V81.0558C63.7409 81.4931 63.6289 81.9785 63.4049 82.5118C63.1809 83.0345 62.8556 83.5625 62.4289 84.0958C62.0129 84.6185 61.5116 85.1038 60.9249 85.5518C60.3382 85.9891 59.6822 86.3411 58.9569 86.6078C58.2316 86.8745 57.4529 87.0078 56.6209 87.0078H54.3169ZM54.3169 87.0078C54.1782 87.0078 54.0929 86.9491 54.0609 86.8318C54.0182 86.7038 53.9969 86.5385 53.9969 86.3358C53.9969 86.1331 54.0182 85.9731 54.0609 85.8558C54.0929 85.7385 54.1782 85.6798 54.3169 85.6798V87.0078ZM64.6369 87.0078V85.6798C64.7756 85.6798 64.8609 85.7385 64.8929 85.8558C64.9356 85.9731 64.9569 86.1331 64.9569 86.3358C64.9569 86.5385 64.9356 86.7038 64.8929 86.8318C64.8609 86.9491 64.7756 87.0078 64.6369 87.0078ZM68.0694 87.0078V85.6798H69.8774V87.0078H68.0694ZM69.8774 87.0078V85.6798C70.0161 85.6798 70.1014 85.7385 70.1334 85.8558C70.1761 85.9731 70.1974 86.1331 70.1974 86.3358C70.1974 86.5385 70.1761 86.7038 70.1334 86.8318C70.1014 86.9491 70.0161 87.0078 69.8774 87.0078ZM64.6294 87.0078V85.6798H67.3494L66.5814 86.2878V78.9918H68.0694V87.0078H64.6294ZM64.6294 87.0078C64.4907 87.0078 64.4054 86.9491 64.3734 86.8318C64.3307 86.7038 64.3094 86.5385 64.3094 86.3358C64.3094 86.1331 64.3307 85.9731 64.3734 85.8558C64.4054 85.7385 64.4907 85.6798 64.6294 85.6798V87.0078ZM65.2694 90.0158V88.4638H66.7734V90.0158H65.2694ZM67.4614 90.0158V88.4638H68.9654V90.0158H67.4614ZM79.0634 87.0078V85.6798H80.7754V87.0078H79.0634ZM69.8794 87.0078V85.6798H78.5034L77.5594 86.3838V83.0718C77.5594 82.3678 77.4794 81.8185 77.3194 81.4238C77.1701 81.0291 76.9034 80.7465 76.5194 80.5758C76.1354 80.4051 75.6127 80.3198 74.9514 80.3198C74.5034 80.3198 74.0607 80.3518 73.6234 80.4158C73.1861 80.4798 72.8447 80.5651 72.5994 80.6718L73.5114 79.7758C73.4474 80.0211 73.3834 80.3358 73.3194 80.7198C73.2554 81.1038 73.2021 81.5198 73.1594 81.9678C73.1167 82.4051 73.0954 82.8425 73.0954 83.2798C73.0954 83.7171 73.1167 84.1491 73.1594 84.5758C73.2021 85.0025 73.2501 85.3758 73.3034 85.6958C73.3567 86.0158 73.3994 86.2345 73.4314 86.3518L72.0074 86.7518C71.9647 86.6131 71.9114 86.3731 71.8474 86.0318C71.7941 85.6905 71.7407 85.2798 71.6874 84.7998C71.6447 84.3198 71.6234 83.8131 71.6234 83.2798C71.6234 82.7571 71.6447 82.2505 71.6874 81.7598C71.7407 81.2585 71.7994 80.8051 71.8634 80.3998C71.9381 79.9945 72.0074 79.6691 72.0714 79.4238C72.3167 79.3278 72.6954 79.2318 73.2074 79.1358C73.7301 79.0398 74.3114 78.9918 74.9514 78.9918C75.8581 78.9918 76.6154 79.1251 77.2234 79.3918C77.8421 79.6585 78.3007 80.0905 78.5994 80.6878C78.9087 81.2745 79.0634 82.0691 79.0634 83.0718V87.0078H69.8794ZM69.8794 87.0078C69.7407 87.0078 69.6554 86.9491 69.6234 86.8318C69.5807 86.7038 69.5594 86.5385 69.5594 86.3358C69.5594 86.1331 69.5807 85.9731 69.6234 85.8558C69.6554 85.7385 69.7407 85.6798 69.8794 85.6798V87.0078ZM80.7754 87.0078V85.6798C80.9141 85.6798 80.9994 85.7385 81.0314 85.8558C81.0741 85.9731 81.0954 86.1331 81.0954 86.3358C81.0954 86.5385 81.0741 86.7038 81.0314 86.8318C80.9994 86.9491 80.9141 87.0078 80.7754 87.0078ZM88.786 87.0078V85.6798H90.514V87.0078H88.786ZM80.77 87.0078V85.6798H87.778L87.298 86.0798V82.3838C87.298 81.7118 87.0847 81.2051 86.658 80.8638C86.242 80.5225 85.5914 80.3518 84.706 80.3518C84.4394 80.3518 84.0554 80.3731 83.554 80.4158C83.0634 80.4585 82.5407 80.5225 81.986 80.6078L81.826 79.3918C82.2634 79.2851 82.738 79.1945 83.25 79.1198C83.762 79.0345 84.258 78.9918 84.738 78.9918C85.57 78.9918 86.2847 79.1251 86.882 79.3918C87.49 79.6585 87.9594 80.0478 88.29 80.5598C88.6207 81.0611 88.786 81.6691 88.786 82.3838V87.0078H80.77ZM80.77 87.0078C80.6314 87.0078 80.546 86.9491 80.514 86.8318C80.4714 86.7038 80.45 86.5385 80.45 86.3358C80.45 86.1331 80.4714 85.9731 80.514 85.8558C80.546 85.7385 80.6314 85.6798 80.77 85.6798V87.0078ZM90.514 87.0078V85.6798C90.642 85.6798 90.7274 85.7385 90.77 85.8558C90.8127 85.9731 90.834 86.1331 90.834 86.3358C90.834 86.5385 90.8127 86.7038 90.77 86.8318C90.7274 86.9491 90.642 87.0078 90.514 87.0078ZM84.082 90.0318V88.4798H85.586V90.0318H84.082ZM90.52 87.0078V85.6798H93.24L92.472 86.2878V78.9918H93.96V87.0078H90.52ZM90.52 87.0078C90.3814 87.0078 90.296 86.9491 90.264 86.8318C90.2214 86.7038 90.2 86.5385 90.2 86.3358C90.2 86.1331 90.2214 85.9731 90.264 85.8558C90.296 85.7385 90.3814 85.6798 90.52 85.6798V87.0078ZM91.16 77.6958V76.1438H92.664V77.6958H91.16ZM93.352 77.6958V76.1438H94.856V77.6958H93.352Z" fill="url(#paint0_linear_3726_650)"/>
<mask id="mask0_3726_650" style="mask-type:luminance" maskUnits="userSpaceOnUse" x="98" y="35" width="47" height="50">
<path d="M104.234 35.8252L144.222 41.1743L138.225 84.2155L98.2366 78.8664L104.234 35.8252Z" fill="white"/>
</mask>
<g mask="url(#mask0_3726_650)">
<path d="M107.718 43.0109L107.718 43.0109L105.871 43.2295C105.87 43.2295 105.87 43.2296 105.87 43.2296C104.22 43.427 103.042 44.9069 103.229 46.5333C103.229 46.5334 103.229 46.5335 103.229 46.5336L106.807 77.2796C106.807 77.2796 106.807 77.2797 106.807 77.2798C106.999 78.9072 108.487 80.0737 110.139 79.88L110.143 79.8795L110.143 79.8795L136.593 76.7491L136.599 76.7484L136.599 76.7485L107.718 43.0109ZM107.718 43.0109L130.482 40.3167L132.329 40.0981C132.329 40.0981 132.329 40.0981 132.329 40.0981C133.981 39.9045 135.469 41.0711 135.66 42.6986L139.238 73.4446C139.426 75.0702 138.249 76.5496 136.6 76.7483L107.718 43.0109Z" stroke="#7096DC" stroke-width="0.8"/>
<path d="M130.391 58.5199L117.065 60.0781C116.756 60.1147 116.475 59.8956 116.439 59.5888C116.403 59.282 116.624 59.0036 116.934 58.9671L116.935 58.967L130.261 57.4087C130.571 57.372 130.851 57.591 130.888 57.8978C130.924 58.2046 130.702 58.483 130.392 58.5197L130.391 58.5199Z" fill="#F2F2F2"/>
<path d="M132.923 60.1434L117.284 61.9715C116.974 62.008 116.693 61.7889 116.657 61.4821C116.621 61.1753 116.843 60.897 117.153 60.8604L117.154 60.8603L132.793 59.0322C133.103 58.996 133.383 59.2154 133.419 59.5222C133.455 59.8291 133.233 60.1071 132.923 60.1434Z" fill="#F2F2F2"/>
<path d="M131.383 67.0074L118.058 68.5657C117.748 68.6014 117.468 68.3814 117.432 68.0745C117.397 67.7685 117.619 67.4912 117.928 67.4545L131.253 65.8963C131.563 65.8601 131.843 66.0795 131.879 66.3863C131.915 66.6931 131.693 66.9712 131.383 67.0074Z" fill="#F2F2F2"/>
<path d="M133.916 68.6307L118.277 70.4588C117.967 70.4956 117.687 70.2768 117.65 69.97C117.614 69.6632 117.835 69.3847 118.145 69.3479L118.147 69.3476L133.786 67.5195C134.096 67.4833 134.376 67.7028 134.412 68.0096C134.448 68.3164 134.226 68.5944 133.916 68.6307Z" fill="#F2F2F2"/>
</g>
<mask id="mask1_3726_650" style="mask-type:luminance" maskUnits="userSpaceOnUse" x="112" y="47" width="37" height="41">
<path d="M115.456 47.4487L148.772 50.1438L145.505 87.8501L112.189 85.1551L115.456 47.4487Z" fill="white"/>
</mask>
<g mask="url(#mask1_3726_650)">
<path d="M115.552 50.876C115.697 49.2427 117.149 48.0203 118.806 48.1509L145.339 50.2748C146.995 50.4094 148.216 51.8458 148.075 53.4796L145.383 84.3584C145.238 85.9919 143.786 87.2145 142.129 87.0837L115.596 84.9599C113.94 84.8254 112.719 83.3889 112.859 81.7553L115.552 50.876Z" stroke="#7096DC" stroke-width="0.8"/>
<path d="M145.29 50.8445L118.755 48.7203C117.421 48.615 116.247 49.5999 116.13 50.9219L113.437 81.8025C113.323 83.1247 114.311 84.2827 115.645 84.391L142.179 86.5152C143.513 86.6205 144.688 85.6356 144.805 84.3136L147.497 53.433C147.611 52.1107 146.624 50.9528 145.29 50.8445Z" fill="white"/>
</g>
<path d="M120.333 57.949L128.887 59.1163" stroke="#86A8E7" stroke-opacity="0.2" stroke-width="2" stroke-linecap="round"/>
<path d="M119.174 62.355L143.021 65.6089" stroke="#86A8E7" stroke-opacity="0.2" stroke-width="2" stroke-linecap="round"/>
<path d="M119.374 66.9536L127.929 68.1209" stroke="#86A8E7" stroke-opacity="0.2" stroke-width="2" stroke-linecap="round"/>
<path d="M118.19 77.5786L126.745 78.7459" stroke="#86A8E7" stroke-opacity="0.2" stroke-width="2" stroke-linecap="round"/>
<path d="M118.901 73.0234L142.747 76.2774" stroke="#86A8E7" stroke-opacity="0.2" stroke-width="2" stroke-linecap="round"/>
<defs>
<linearGradient id="paint0_linear_3726_650" x1="13.9544" y1="48.7535" x2="108.3" y2="114.263" gradientUnits="userSpaceOnUse">
<stop stop-color="#91EAE4"/>
<stop offset="0.46875" stop-color="#86A8E7"/>
<stop offset="1" stop-color="#7F7FD5"/>
</linearGradient>
</defs>
</svg>
