<svg width="165" height="161" viewBox="0 0 165 161" fill="none" xmlns="http://www.w3.org/2000/svg">
<path d="M86.324 160.578C121.83 160.292 150.53 123.163 152.194 87.8902C154.04 48.7699 122.059 24.0637 116.504 19.9498C97.176 5.63849 59.2174 -10.0406 33.0692 8.35496C4.00844 28.7997 10.9732 76.2523 19.7768 100.123C22.0849 106.38 43.0869 160.926 86.324 160.578V160.578Z" fill="#ECF3FE" fill-opacity="0.8"/>
<g style="mix-blend-mode:multiply" opacity="0.2">
<path d="M67.2662 38.9666C73.3482 38.9666 79.2415 39.5625 84.8448 40.6794C92.1857 42.1431 99.8597 40.7584 106.173 36.7461C115.581 30.7678 127.86 29.2525 139.326 33.7294C158.03 41.0308 167.482 61.4988 160.44 79.4454C156.997 88.2198 150.248 94.7615 142.063 98.3062C136.355 100.778 131.38 104.75 128.007 109.966C117.189 126.694 94.0566 138.251 67.2668 138.251C30.1163 138.251 -0.000137329 116.026 -0.000137329 88.6089C-0.000137329 61.1921 30.1163 38.9666 67.2668 38.9666H67.2662Z" fill="#3A7EC1"/>
</g>
<path d="M68.898 34.5975C74.98 34.5975 80.8733 35.1934 86.4767 36.3103C93.8176 37.7739 101.492 36.3893 107.805 32.377C117.213 26.3987 129.491 24.8833 140.958 29.3602C159.661 36.6617 169.114 57.1296 162.072 75.0763C158.629 83.8507 151.88 90.3924 143.694 93.9371C137.987 96.4085 133.012 100.381 129.639 105.597C118.82 122.324 95.6884 133.882 68.8986 133.882C31.7481 133.882 1.6317 111.657 1.6317 84.2398C1.6317 56.823 31.7481 34.5975 68.8986 34.5975H68.898Z" fill="white"/>
<path d="M147.81 135.036C149.042 135.036 150.04 134.041 150.04 132.812C150.04 131.583 149.042 130.587 147.81 130.587C146.579 130.587 145.58 131.583 145.58 132.812C145.58 134.041 146.579 135.036 147.81 135.036Z" fill="#4786D1"/>
<path d="M86.7768 149.233C87.1134 147.165 85.7054 145.216 83.6319 144.88C81.5584 144.544 79.6047 145.949 79.2681 148.017C78.9315 150.085 80.3396 152.034 82.4131 152.37C84.4865 152.706 86.4402 151.301 86.7768 149.233Z" fill="#4786D1"/>
<path d="M114.801 16.1346C115.293 13.1085 113.233 10.2573 110.2 9.76606C107.166 9.27486 104.307 11.3298 103.815 14.3558C103.323 17.3819 105.383 20.2332 108.416 20.7244C111.45 21.2155 114.309 19.1606 114.801 16.1346Z" fill="#4786D1"/>
<path d="M53.1788 88.0942C51.5575 88.0942 50.3361 87.8009 49.5148 87.2142C48.6935 86.6276 48.2828 85.7316 48.2828 84.5262C48.2828 84.2702 48.2988 83.9982 48.3308 83.7102C48.3735 83.4116 48.4161 83.1236 48.4588 82.8462C48.5121 82.5689 48.5601 82.3289 48.6028 82.1262C48.6455 81.9236 48.6775 81.7796 48.6988 81.6942L50.1548 81.9662C50.1228 82.1369 50.0748 82.3662 50.0108 82.6542C49.9575 82.9422 49.9041 83.2516 49.8508 83.5822C49.7975 83.9129 49.7708 84.2276 49.7708 84.5262C49.7708 85.0596 49.8828 85.4916 50.1068 85.8222C50.3415 86.1529 50.7095 86.3929 51.2108 86.5422C51.7121 86.6916 52.3788 86.7662 53.2108 86.7662H57.7868V80.0782H59.2908V88.0942H53.1788ZM51.9308 80.3342V78.7822H53.4348V80.3342H51.9308ZM54.1228 80.3342V78.7822H55.6268V80.3342H54.1228ZM61.9905 88.0942V76.6702H63.4785V88.0942H61.9905ZM65.2585 91.7582C65.1199 91.7582 64.9759 91.7476 64.8265 91.7262C64.6665 91.7156 64.5065 91.7049 64.3465 91.6942L64.4745 90.3662C64.6345 90.3769 64.7839 90.3876 64.9225 90.3982C65.0505 90.4089 65.1572 90.4142 65.2425 90.4142C65.7225 90.4142 66.1065 90.2329 66.3945 89.8702C66.6932 89.5076 66.8425 89.0009 66.8425 88.3502V80.0782H68.3465V88.3502C68.3465 89.0222 68.2132 89.6142 67.9465 90.1262C67.6799 90.6382 67.3172 91.0382 66.8585 91.3262C66.3999 91.6142 65.8665 91.7582 65.2585 91.7582ZM72.4473 88.0942V86.7662H74.3673V88.0942H72.4473ZM70.9593 88.0942V76.6702H72.4473V88.0942H70.9593ZM74.3673 88.0942V86.7662C74.4953 86.7662 74.5806 86.8249 74.6233 86.9422C74.666 87.0596 74.6873 87.2196 74.6873 87.4222C74.6873 87.6249 74.666 87.7902 74.6233 87.9182C74.5806 88.0356 74.4953 88.0942 74.3673 88.0942ZM77.5775 88.0942V86.7662H79.2895V88.0942H77.5775ZM74.3615 88.0942V86.7662H76.8415L76.0735 87.3742V80.0782H77.5775V88.0942H74.3615ZM74.3615 88.0942C74.2229 88.0942 74.1375 88.0356 74.1055 87.9182C74.0629 87.7902 74.0415 87.6249 74.0415 87.4222C74.0415 87.2196 74.0629 87.0596 74.1055 86.9422C74.1375 86.8249 74.2229 86.7662 74.3615 86.7662V88.0942ZM79.2895 88.0942V86.7662C79.4282 86.7662 79.5135 86.8249 79.5455 86.9422C79.5882 87.0596 79.6095 87.2196 79.6095 87.4222C79.6095 87.6249 79.5882 87.7902 79.5455 87.9182C79.5135 88.0356 79.4282 88.0942 79.2895 88.0942ZM76.0735 91.1182V89.5662H77.5775V91.1182H76.0735ZM82.7234 88.0942V86.7662H84.5314V88.0942H82.7234ZM84.5314 88.0942V86.7662C84.6701 86.7662 84.7554 86.8249 84.7874 86.9422C84.8301 87.0596 84.8514 87.2196 84.8514 87.4222C84.8514 87.6249 84.8301 87.7902 84.7874 87.9182C84.7554 88.0356 84.6701 88.0942 84.5314 88.0942ZM79.2834 88.0942V86.7662H82.0034L81.2354 87.3742V80.0782H82.7234V88.0942H79.2834ZM79.2834 88.0942C79.1448 88.0942 79.0594 88.0356 79.0274 87.9182C78.9848 87.7902 78.9634 87.6249 78.9634 87.4222C78.9634 87.2196 78.9848 87.0596 79.0274 86.9422C79.0594 86.8249 79.1448 86.7662 79.2834 86.7662V88.0942ZM79.9234 78.7822V77.2302H81.4274V78.7822H79.9234ZM82.1154 78.7822V77.2302H83.6194V78.7822H82.1154ZM84.5334 88.0942V86.7662H91.5414L91.0614 87.1662V83.4702C91.0614 82.7982 90.8481 82.2916 90.4214 81.9502C90.0054 81.6089 89.3548 81.4382 88.4694 81.4382C88.2028 81.4382 87.8188 81.4596 87.3174 81.5022C86.8268 81.5449 86.3041 81.6089 85.7494 81.6942L85.5894 80.4782C86.0268 80.3716 86.5014 80.2809 87.0134 80.2062C87.5254 80.1209 88.0214 80.0782 88.5014 80.0782C89.3334 80.0782 90.0481 80.2116 90.6454 80.4782C91.2534 80.7449 91.7228 81.1342 92.0534 81.6462C92.3841 82.1476 92.5494 82.7556 92.5494 83.4702V88.0942H84.5334ZM84.5334 88.0942C84.3948 88.0942 84.3094 88.0356 84.2774 87.9182C84.2348 87.7902 84.2134 87.6249 84.2134 87.4222C84.2134 87.2196 84.2348 87.0596 84.2774 86.9422C84.3094 86.8249 84.3948 86.7662 84.5334 86.7662V88.0942ZM87.7494 78.9422V77.3902H89.2534V78.9422H87.7494ZM95.0062 88.0942V76.6702H96.4942V88.0942H95.0062Z" fill="url(#paint0_linear_3726_603)"/>
<path d="M118.484 70.8185L119.973 76.7201L115.302 79.3581L110.111 56.0294L116.023 52.6909L133.529 69.064L128.663 71.8127L124.228 67.5747L118.483 70.8191L118.484 70.8185ZM121.657 64.6026L118.015 61.079C117.005 60.097 115.805 58.8073 114.837 57.8165L114.776 57.8514C115.146 59.187 115.702 60.8665 116.037 62.2021L117.238 67.0984L121.658 64.6019L121.657 64.6026Z" fill="#7096DC"/>
<path d="M135.602 47.1651L139.261 53.6098L145.458 50.11L147.017 52.8578L140.82 56.3576L144.512 62.8616L141.613 64.4989L137.921 57.995L131.724 61.4948L130.165 58.747L136.362 55.2472L132.703 48.8024L135.602 47.1651Z" fill="#7096DC"/>
<defs>
<linearGradient id="paint0_linear_3726_603" x1="17.8694" y1="49.8954" x2="111.587" y2="114.228" gradientUnits="userSpaceOnUse">
<stop stop-color="#91EAE4"/>
<stop offset="0.46875" stop-color="#86A8E7"/>
<stop offset="1" stop-color="#7F7FD5"/>
</linearGradient>
</defs>
</svg>
