<svg width="164" height="161" viewBox="0 0 164 161" fill="none" xmlns="http://www.w3.org/2000/svg">
<path d="M86.1131 160.998C121.532 160.711 150.162 123.485 151.822 88.1202C153.663 48.8975 121.761 24.1267 116.219 20.002C96.9386 5.65324 59.0729 -10.0669 32.9888 8.37683C3.99927 28.8751 10.9469 76.4519 19.729 100.385C22.0315 106.659 42.982 161.347 86.1131 160.998V160.998Z" fill="#F4EAF1" fill-opacity="0.8"/>
<g style="mix-blend-mode:multiply" opacity="0.2">
<path d="M67.1017 39.0686C73.1688 39.0686 79.0477 39.6661 84.6373 40.786C91.9602 42.2534 99.6154 40.8652 105.914 36.8424C115.299 30.8484 127.547 29.3291 138.985 33.8177C157.643 41.1383 167.072 61.6598 160.047 79.6534C156.613 88.4507 149.88 95.0096 141.715 98.5636C136.021 101.041 131.058 105.025 127.694 110.254C116.902 127.025 93.8265 138.613 67.1023 138.613C30.0428 138.613 0.000183105 116.329 0.000183105 88.8409C0.000183105 61.3523 30.0428 39.0686 67.1023 39.0686H67.1017Z" fill="#3A7EC1"/>
</g>
<path d="M68.7292 34.6878C74.7962 34.6878 80.6751 35.2853 86.2647 36.4051C93.5876 37.8726 101.243 36.4843 107.541 32.4615C116.926 26.4675 129.174 24.9482 140.613 29.4369C159.27 36.7574 168.7 57.2789 161.675 75.2725C158.24 84.0699 151.508 90.6287 143.342 94.1827C137.649 96.6605 132.686 100.644 129.321 105.873C118.529 122.644 95.4539 134.232 68.7297 134.232C31.6703 134.232 1.62762 111.949 1.62762 84.46C1.62762 56.9714 31.6703 34.6878 68.7297 34.6878H68.7292Z" fill="white"/>
<path d="M147.449 135.39C148.677 135.39 149.674 134.391 149.674 133.16C149.674 131.928 148.677 130.929 147.449 130.929C146.22 130.929 145.224 131.928 145.224 133.16C145.224 134.391 146.22 135.39 147.449 135.39Z" fill="#FF8181"/>
<path d="M86.5641 149.623C86.8998 147.55 85.4952 145.596 83.4268 145.259C81.3584 144.923 79.4095 146.331 79.0737 148.405C78.738 150.478 80.1426 152.432 82.211 152.769C84.2794 153.105 86.2283 151.697 86.5641 149.623Z" fill="#FF8181"/>
<path d="M114.519 16.1772C115.011 13.1432 112.956 10.2844 109.929 9.79195C106.903 9.29947 104.052 11.3598 103.56 14.3937C103.069 17.4277 105.124 20.2864 108.15 20.7789C111.177 21.2714 114.028 19.2111 114.519 16.1772Z" fill="#FF8181"/>
<path d="M41.1936 80.9209C39.5722 80.9209 38.3509 80.6276 37.5296 80.0409C36.7082 79.4542 36.2976 78.5582 36.2976 77.3529C36.2976 77.0969 36.3136 76.8249 36.3456 76.5369C36.3882 76.2382 36.4309 75.9502 36.4736 75.6729C36.5269 75.3956 36.5749 75.1556 36.6176 74.9529C36.6602 74.7502 36.6922 74.6062 36.7136 74.5209L38.1696 74.7929C38.1376 74.9636 38.0896 75.1929 38.0256 75.4809C37.9722 75.7689 37.9189 76.0782 37.8656 76.4089C37.8122 76.7396 37.7856 77.0542 37.7856 77.3529C37.7856 77.8862 37.8976 78.3182 38.1216 78.6489C38.3562 78.9796 38.7242 79.2196 39.2256 79.3689C39.7269 79.5182 40.3936 79.5929 41.2256 79.5929H45.8016V72.9049H47.3056V80.9209H41.1936ZM39.9456 73.1609V71.6089H41.4496V73.1609H39.9456ZM42.1376 73.1609V71.6089H43.6416V73.1609H42.1376ZM50.0053 80.9209V69.4969H51.4933V80.9209H50.0053ZM61.2733 80.9209V79.5929H69.4813L68.1533 80.7769V77.1129C68.1533 76.4622 68.0627 75.9289 67.8813 75.5129C67.7107 75.0862 67.4493 74.7716 67.0973 74.5689C66.7453 74.3556 66.308 74.2489 65.7853 74.2489C65.3267 74.2489 64.8947 74.3289 64.4893 74.4889C64.084 74.6489 63.7053 74.8622 63.3533 75.1289C63.012 75.3849 62.692 75.6676 62.3933 75.9769C62.1053 76.2862 61.8387 76.5956 61.5933 76.9049C61.348 77.2142 61.1293 77.4916 60.9373 77.7369L60.5213 76.4889C60.82 76.1156 61.1133 75.7529 61.4013 75.4009C61.6893 75.0382 61.9827 74.7076 62.2813 74.4089C62.5907 74.1102 62.9213 73.8489 63.2733 73.6249C63.6253 73.4009 64.0093 73.2249 64.4253 73.0969C64.8413 72.9689 65.316 72.9049 65.8493 72.9049C66.596 72.9049 67.2147 73.0329 67.7053 73.2889C68.196 73.5449 68.58 73.8809 68.8573 74.2969C69.1453 74.7129 69.348 75.1716 69.4653 75.6729C69.5827 76.1636 69.6413 76.6436 69.6413 77.1129V80.9209H61.2733ZM56.3613 75.8329V74.4889H59.7853V75.8329H56.3613ZM59.7853 80.9209V72.9049H61.2733V80.9209H59.7853ZM53.2733 84.5849C53.1347 84.5849 52.9907 84.5742 52.8413 84.5529C52.6813 84.5422 52.5213 84.5316 52.3613 84.5209L52.4893 83.1929C52.6493 83.2036 52.7987 83.2142 52.9373 83.2249C53.0653 83.2356 53.172 83.2409 53.2573 83.2409C53.7373 83.2409 54.1213 83.0596 54.4093 82.6969C54.708 82.3342 54.8573 81.8276 54.8573 81.1769V72.9049H56.3613V81.1769C56.3613 81.8489 56.228 82.4409 55.9613 82.9529C55.6947 83.4649 55.332 83.8649 54.8733 84.1529C54.4147 84.4409 53.8813 84.5849 53.2733 84.5849ZM64.1373 71.7529V70.2009H65.6413V71.7529H64.1373ZM73.8215 80.9209V79.5929H75.7415V80.9209H73.8215ZM72.3335 80.9209V69.4969H73.8215V80.9209H72.3335ZM75.7415 80.9209V79.5929C75.8695 79.5929 75.9548 79.6516 75.9975 79.7689C76.0401 79.8862 76.0615 80.0462 76.0615 80.2489C76.0615 80.4516 76.0401 80.6169 75.9975 80.7449C75.9548 80.8622 75.8695 80.9209 75.7415 80.9209ZM83.7517 80.9209V79.5929H85.4797V80.9209H83.7517ZM75.7357 80.9209V79.5929H82.7437L82.2637 79.9929V76.2969C82.2637 75.6249 82.0504 75.1182 81.6237 74.7769C81.2077 74.4356 80.557 74.2649 79.6717 74.2649C79.405 74.2649 79.021 74.2862 78.5197 74.3289C78.029 74.3716 77.5064 74.4356 76.9517 74.5209L76.7917 73.3049C77.229 73.1982 77.7037 73.1076 78.2157 73.0329C78.7277 72.9476 79.2237 72.9049 79.7037 72.9049C80.5357 72.9049 81.2504 73.0382 81.8477 73.3049C82.4557 73.5716 82.925 73.9609 83.2557 74.4729C83.5864 74.9742 83.7517 75.5822 83.7517 76.2969V80.9209H75.7357ZM75.7357 80.9209C75.597 80.9209 75.5117 80.8622 75.4797 80.7449C75.437 80.6169 75.4157 80.4516 75.4157 80.2489C75.4157 80.0462 75.437 79.8862 75.4797 79.7689C75.5117 79.6516 75.597 79.5929 75.7357 79.5929V80.9209ZM85.4797 80.9209V79.5929C85.6077 79.5929 85.693 79.6516 85.7357 79.7689C85.7784 79.8862 85.7997 80.0462 85.7997 80.2489C85.7997 80.4516 85.7784 80.6169 85.7357 80.7449C85.693 80.8622 85.6077 80.9209 85.4797 80.9209ZM85.4857 80.9209V79.5929H94.1097L93.1657 80.2969V76.9849C93.1657 76.2809 93.0857 75.7316 92.9257 75.3369C92.7764 74.9422 92.5097 74.6596 92.1257 74.4889C91.7417 74.3182 91.219 74.2329 90.5577 74.2329C90.1097 74.2329 89.667 74.2649 89.2297 74.3289C88.7924 74.3929 88.451 74.4782 88.2057 74.5849L89.1177 73.6889C89.0537 73.9342 88.9897 74.2489 88.9257 74.6329C88.8617 75.0169 88.8084 75.4329 88.7657 75.8809C88.723 76.3182 88.7017 76.7556 88.7017 77.1929C88.7017 77.6302 88.723 78.0622 88.7657 78.4889C88.8084 78.9156 88.8564 79.2889 88.9097 79.6089C88.963 79.9289 89.0057 80.1476 89.0377 80.2649L87.6137 80.6649C87.571 80.5262 87.5177 80.2862 87.4537 79.9449C87.4004 79.6036 87.347 79.1929 87.2937 78.7129C87.251 78.2329 87.2297 77.7262 87.2297 77.1929C87.2297 76.6702 87.251 76.1636 87.2937 75.6729C87.347 75.1716 87.4057 74.7182 87.4697 74.3129C87.5444 73.9076 87.6137 73.5822 87.6777 73.3369C87.923 73.2409 88.3017 73.1449 88.8137 73.0489C89.3364 72.9529 89.9177 72.9049 90.5577 72.9049C91.4644 72.9049 92.2217 73.0382 92.8297 73.3049C93.4484 73.5716 93.907 74.0036 94.2057 74.6009C94.515 75.1876 94.6697 75.9822 94.6697 76.9849V80.9209H85.4857ZM85.4857 80.9209C85.347 80.9209 85.2617 80.8622 85.2297 80.7449C85.187 80.6169 85.1657 80.4516 85.1657 80.2489C85.1657 80.0462 85.187 79.8862 85.2297 79.7689C85.2617 79.6516 85.347 79.5929 85.4857 79.5929V80.9209ZM45.6807 108.921C44.7527 108.921 44.022 108.782 43.4887 108.505C42.9554 108.217 42.5714 107.78 42.3367 107.193C42.1127 106.596 42.0007 105.844 42.0007 104.937C42.0007 104.02 42.1127 103.262 42.3367 102.665C42.5714 102.068 42.9554 101.625 43.4887 101.337C44.022 101.049 44.7527 100.905 45.6807 100.905H49.0727V108.185H47.5847V101.721L48.1927 102.249H45.6807C45.1154 102.249 44.6727 102.318 44.3527 102.457C44.0327 102.585 43.8087 102.846 43.6807 103.241C43.5527 103.625 43.4887 104.19 43.4887 104.937C43.4887 105.673 43.5527 106.233 43.6807 106.617C43.8087 106.99 44.0274 107.246 44.3367 107.385C44.6567 107.524 45.1047 107.593 45.6807 107.593H50.7847V108.921H45.6807ZM50.7847 108.921V107.593C50.9234 107.593 51.0087 107.652 51.0407 107.769C51.0834 107.886 51.1047 108.046 51.1047 108.249C51.1047 108.452 51.0834 108.617 51.0407 108.745C51.0087 108.862 50.9234 108.921 50.7847 108.921ZM44.0167 99.6089V98.0569H45.5207V99.6089H44.0167ZM46.2087 99.6089V98.0569H47.7127V99.6089H46.2087ZM54.1746 108.921V107.593H55.9026V108.921H54.1746ZM52.6866 108.921V97.4969H54.1746V108.921H52.6866ZM50.7826 108.921V107.593H52.6866V108.921H50.7826ZM50.7826 108.921C50.6439 108.921 50.5586 108.862 50.5266 108.745C50.4839 108.617 50.4626 108.452 50.4626 108.249C50.4626 108.046 50.4839 107.886 50.5266 107.769C50.5586 107.652 50.6439 107.593 50.7826 107.593V108.921ZM55.9026 108.921V107.593C56.0306 107.593 56.1159 107.652 56.1586 107.769C56.2012 107.886 56.2226 108.046 56.2226 108.249C56.2226 108.452 56.2012 108.617 56.1586 108.745C56.1159 108.862 56.0306 108.921 55.9026 108.921ZM63.9236 108.921V107.593H65.6516V108.921H63.9236ZM55.9076 108.921V107.593H62.9156L62.4356 107.993V104.297C62.4356 103.625 62.2222 103.118 61.7956 102.777C61.3796 102.436 60.7289 102.265 59.8436 102.265C59.5769 102.265 59.1929 102.286 58.6916 102.329C58.2009 102.372 57.6782 102.436 57.1236 102.521L56.9636 101.305C57.4009 101.198 57.8756 101.108 58.3876 101.033C58.8996 100.948 59.3956 100.905 59.8756 100.905C60.7076 100.905 61.4222 101.038 62.0196 101.305C62.6276 101.572 63.0969 101.961 63.4276 102.473C63.7582 102.974 63.9236 103.582 63.9236 104.297V108.921H55.9076ZM55.9076 108.921C55.7689 108.921 55.6836 108.862 55.6516 108.745C55.6089 108.617 55.5876 108.452 55.5876 108.249C55.5876 108.046 55.6089 107.886 55.6516 107.769C55.6836 107.652 55.7689 107.593 55.9076 107.593V108.921ZM65.6516 108.921V107.593C65.7796 107.593 65.8649 107.652 65.9076 107.769C65.9502 107.886 65.9716 108.046 65.9716 108.249C65.9716 108.452 65.9502 108.617 65.9076 108.745C65.8649 108.862 65.7796 108.921 65.6516 108.921ZM59.2196 111.945V110.393H60.7236V111.945H59.2196ZM78.0736 108.921V107.593H79.7856V108.921H78.0736ZM74.3456 108.921C73.9616 108.921 73.5829 108.852 73.2096 108.713C72.8469 108.564 72.5002 108.334 72.1696 108.025L73.1136 107.033C73.3482 107.225 73.5616 107.369 73.7536 107.465C73.9456 107.55 74.1429 107.593 74.3456 107.593H77.2416L76.5856 108.233V104.489C76.5856 104.297 76.5642 104.03 76.5216 103.689C76.4896 103.337 76.4362 102.942 76.3616 102.505C76.2976 102.057 76.2176 101.604 76.1216 101.145L77.5776 100.905C77.6522 101.289 77.7269 101.71 77.8016 102.169C77.8762 102.628 77.9402 103.065 77.9936 103.481C78.0469 103.897 78.0736 104.233 78.0736 104.489V108.921H74.3456ZM65.6576 108.921V107.593H67.9936L67.6256 107.961V102.521H69.1136V108.921H65.6576ZM69.1136 108.921V107.593H70.7776C71.1402 107.593 71.4122 107.54 71.5936 107.433C71.7749 107.326 71.9029 107.113 71.9776 106.793C72.0522 106.473 72.0896 106.004 72.0896 105.385V101.721H73.5936V105.385C73.5936 106.249 73.4922 106.942 73.2896 107.465C73.0976 107.988 72.7989 108.361 72.3936 108.585C71.9882 108.809 71.4496 108.921 70.7776 108.921H69.1136ZM65.6576 108.921C65.5189 108.921 65.4336 108.862 65.4016 108.745C65.3589 108.617 65.3376 108.452 65.3376 108.249C65.3376 108.046 65.3589 107.886 65.4016 107.769C65.4336 107.652 65.5189 107.593 65.6576 107.593V108.921ZM79.7856 108.921V107.593C79.9242 107.593 80.0096 107.652 80.0416 107.769C80.0842 107.886 80.1056 108.046 80.1056 108.249C80.1056 108.452 80.0842 108.617 80.0416 108.745C80.0096 108.862 79.9242 108.921 79.7856 108.921ZM79.7826 108.921V107.593H88.4066L87.4626 108.297V104.985C87.4626 104.281 87.3826 103.732 87.2226 103.337C87.0732 102.942 86.8066 102.66 86.4226 102.489C86.0386 102.318 85.5159 102.233 84.8546 102.233C84.4066 102.233 83.9639 102.265 83.5266 102.329C83.0892 102.393 82.7479 102.478 82.5026 102.585L83.4146 101.689C83.3506 101.934 83.2866 102.249 83.2226 102.633C83.1586 103.017 83.1052 103.433 83.0626 103.881C83.0199 104.318 82.9986 104.756 82.9986 105.193C82.9986 105.63 83.0199 106.062 83.0626 106.489C83.1052 106.916 83.1532 107.289 83.2066 107.609C83.2599 107.929 83.3026 108.148 83.3346 108.265L81.9106 108.665C81.8679 108.526 81.8146 108.286 81.7506 107.945C81.6972 107.604 81.6439 107.193 81.5906 106.713C81.5479 106.233 81.5266 105.726 81.5266 105.193C81.5266 104.67 81.5479 104.164 81.5906 103.673C81.6439 103.172 81.7026 102.718 81.7666 102.313C81.8412 101.908 81.9106 101.582 81.9746 101.337C82.2199 101.241 82.5986 101.145 83.1106 101.049C83.6332 100.953 84.2146 100.905 84.8546 100.905C85.7612 100.905 86.5186 101.038 87.1266 101.305C87.7452 101.572 88.2039 102.004 88.5026 102.601C88.8119 103.188 88.9666 103.982 88.9666 104.985V108.921H79.7826ZM79.7826 108.921C79.6439 108.921 79.5586 108.862 79.5266 108.745C79.4839 108.617 79.4626 108.452 79.4626 108.249C79.4626 108.046 79.4839 107.886 79.5266 107.769C79.5586 107.652 79.6439 107.593 79.7826 107.593V108.921Z" fill="url(#paint0_linear_3726_592)"/>
<path d="M137.861 53.5468C139.495 53.3935 140.478 55.1268 139.7 56.7858L135.834 65.0275L131.967 73.2692C131.189 74.9282 129.179 75.3825 128.21 74.1182L122.237 66.3075L116.968 59.4208C115.854 57.964 117.006 55.5091 118.885 55.3312L127.774 54.4942L137.856 53.5437L137.861 53.5468Z" fill="#FF8181"/>
<path d="M136.783 42.0622C147.748 47.1283 152.553 60.1696 147.494 71.133C142.436 82.0963 129.398 86.8933 118.433 81.8272C107.467 76.7611 102.663 63.7198 107.721 52.7564C112.78 41.7931 125.817 36.9961 136.783 42.0622ZM119.086 80.4151C129.272 85.1189 141.38 80.6638 146.08 70.4817C150.777 60.2978 146.315 48.1858 136.131 43.479C125.945 38.7752 113.837 43.2303 109.137 53.4124C104.44 63.5963 108.902 75.7083 119.086 80.4151Z" fill="#FF8181"/>
<defs>
<linearGradient id="paint0_linear_3726_592" x1="33.8319" y1="68.913" x2="98.3539" y2="104.866" gradientUnits="userSpaceOnUse">
<stop stop-color="#E15959"/>
<stop offset="1" stop-color="#FF8181"/>
</linearGradient>
</defs>
</svg>
