<svg xmlns="http://www.w3.org/2000/svg" width="164" height="160" fill="none" viewBox="0 0 164 160"><path fill="#2B1E6B" d="M58.823 55.7851C60.0118 55.724 61.2005 55.5546 62.394 55.0842C61.2052 54.609 60.0118 54.4444 58.823 54.3832C58.7617 52.9907 58.5825 51.6029 58.0258 50.2104C57.4692 51.5982 57.29 52.9907 57.2287 54.3785C56.0399 54.4397 54.8464 54.6043 53.6577 55.0795C54.8464 55.5546 56.0399 55.724 57.2287 55.7804C57.2853 57.1729 57.4645 58.5607 58.0258 59.9532C58.5872 58.5607 58.7664 57.1729 58.823 55.7804V55.7851Z"/><path fill="#6F54E8" d="M11.1932 82.299C11.679 82.0073 12.4149 81.0523 13.2027 80.436C12.5517 81.01 11.1696 81.7391 11.1932 82.299Z"/><path fill="#6F54E8" d="M12.3181 83.5268L12.2755 83.4561C12.1948 83.5598 12.0808 83.6871 11.9526 83.8286C12.076 83.7343 12.1995 83.6305 12.3181 83.5221V83.5268Z"/><path fill="#6F54E8" d="M12.165 83.2867L12.2737 83.4571C12.4392 83.2347 12.4723 83.1259 12.165 83.2867Z"/><path fill="#6F54E8" d="M9.24467 85.7989C9.76357 85.4414 10.2777 85.0745 10.7872 84.6981C10.9334 84.938 11.0043 85.0651 10.042 85.7425C10.3392 85.6672 11.0844 84.9051 11.5231 84.4864L11.1599 84.7358C11.3108 84.5099 11.6646 84.1524 11.9523 83.8325C10.5891 84.8863 9.1409 85.0509 9.2494 85.7989H9.24467Z"/><path fill="#6F54E8" d="M14.1362 71.2104L14.1692 71.399C14.2823 71.4085 14.3152 71.3755 14.1362 71.2104Z"/><path fill="#E3F1EB" fill-opacity=".8" d="M86.1129 159.998C121.532 159.713 150.161 122.718 151.821 87.5728C153.663 48.5938 121.761 23.9768 116.219 19.8778C96.9383 5.61813 59.0727 -10.0044 32.9886 8.3248C3.99903 28.6957 10.9467 75.977 19.7287 99.7612C22.0312 105.996 42.9817 160.345 86.1129 159.998V159.998Z"/><g style="mix-blend-mode:multiply" opacity=".2"><path fill="#3A7EC1" d="M67.1013 38.826C73.1684 38.826 79.0472 39.4198 84.6369 40.5327C91.9598 41.991 99.6149 40.6114 105.913 36.6136C115.298 30.6568 127.546 29.1469 138.985 33.6077C157.642 40.8828 167.072 61.2769 160.047 79.1587C156.612 87.9014 149.88 94.4195 141.714 97.9514C136.021 100.414 131.058 104.372 127.693 109.569C116.901 126.236 93.8261 137.752 67.1019 137.752C30.0424 137.752 -0.000198364 115.607 -0.000198364 88.2891C-0.000198364 60.9713 30.0424 38.826 67.1019 38.826H67.1013Z"/></g><path fill="#fff" d="M68.7292 34.4725C74.7963 34.4725 80.6752 35.0663 86.2648 36.1792C93.5877 37.6375 101.243 36.2579 107.541 32.2601C116.926 26.3033 129.174 24.7934 140.613 29.2542C159.27 36.5293 168.7 56.9233 161.675 74.8052C158.24 83.5479 151.508 90.066 143.342 93.5979C137.649 96.0603 132.686 100.019 129.321 105.216C118.529 121.883 95.454 133.399 68.7298 133.399C31.6704 133.399 1.62773 111.253 1.62773 83.9356C1.62773 56.6178 31.6704 34.4725 68.7298 34.4725H68.7292Z"/><path fill="#fff" d="M26.1807 9.60662C26.0855 9.57421 25.9943 9.52502 25.9112 9.45963C25.5127 9.14654 25.4442 8.57072 25.7579 8.17372C26.1627 7.66155 26.6193 7.16327 27.1142 6.6922C27.4813 6.34265 28.0627 6.35596 28.4136 6.72171C28.7644 7.08746 28.751 7.66676 28.3839 8.0163C27.9512 8.42835 27.5533 8.86239 27.2019 9.30685C26.9533 9.62109 26.5403 9.72931 26.1813 9.60605L26.1807 9.60662Z" opacity=".65"/><path fill="#4BB748" d="M147.448 134.549C148.677 134.549 149.673 133.556 149.673 132.332C149.673 131.108 148.677 130.116 147.448 130.116C146.219 130.116 145.223 131.108 145.223 132.332C145.223 133.556 146.219 134.549 147.448 134.549Z"/><path fill="#4BB748" d="M86.5641 148.694C86.8998 146.633 85.4952 144.691 83.4268 144.357C81.3584 144.022 79.4095 145.422 79.0737 147.483C78.738 149.543 80.1426 151.485 82.211 151.82C84.2794 152.154 86.2283 150.755 86.5641 148.694Z"/><path fill="#4BB748" d="M114.519 16.0767C115.011 13.0615 112.956 10.2205 109.929 9.73112C106.903 9.2417 104.052 11.2892 103.56 14.3043C103.069 17.3194 105.124 20.1604 108.15 20.6499C111.177 21.1393 114.028 19.0918 114.519 16.0767Z"/><path fill="#27AE60" d="M47.8036 86.5728C46.1822 86.5728 44.9609 86.2794 44.1396 85.6928C43.3182 85.1061 42.9076 84.2101 42.9076 83.0048C42.9076 82.7488 42.9236 82.4768 42.9556 82.1888C42.9982 81.8901 43.0409 81.6021 43.0836 81.3248C43.1369 81.0474 43.1849 80.8074 43.2276 80.6048C43.2702 80.4021 43.3022 80.2581 43.3236 80.1728L44.7796 80.4448C44.7476 80.6154 44.6996 80.8448 44.6356 81.1328C44.5822 81.4208 44.5289 81.7301 44.4756 82.0608C44.4222 82.3914 44.3956 82.7061 44.3956 83.0048C44.3956 83.5381 44.5076 83.9701 44.7316 84.3008C44.9662 84.6314 45.3342 84.8714 45.8356 85.0208C46.3369 85.1701 47.0036 85.2448 47.8356 85.2448H52.4116V78.5568H53.9156V86.5728H47.8036ZM46.5556 78.8128V77.2608H48.0596V78.8128H46.5556ZM48.7476 78.8128V77.2608H50.2516V78.8128H48.7476ZM58.1033 86.5728V85.2448H60.0233V86.5728H58.1033ZM56.6153 86.5728V75.1488H58.1033V86.5728H56.6153ZM60.0233 86.5728V85.2448C60.1513 85.2448 60.2366 85.3034 60.2793 85.4208C60.322 85.5381 60.3433 85.6981 60.3433 85.9008C60.3433 86.1034 60.322 86.2688 60.2793 86.3968C60.2366 86.5141 60.1513 86.5728 60.0233 86.5728ZM72.0816 86.5728V85.2448H73.7936V86.5728H72.0816ZM60.0176 86.5728V85.2448H71.9216L70.5776 86.4288V82.7648C70.5776 82.1141 70.4869 81.5808 70.3056 81.1648C70.1349 80.7381 69.8736 80.4234 69.5216 80.2208C69.1696 80.0074 68.7322 79.9008 68.2096 79.9008C67.7509 79.9008 67.3189 79.9808 66.9136 80.1408C66.5082 80.3008 66.1349 80.5141 65.7936 80.7808C65.4522 81.0368 65.1322 81.3194 64.8336 81.6288C64.5349 81.9381 64.2629 82.2474 64.0176 82.5568C63.7829 82.8661 63.5696 83.1434 63.3776 83.3888L62.9456 82.1408C63.2549 81.7674 63.5536 81.4048 63.8416 81.0528C64.1296 80.6901 64.4229 80.3594 64.7216 80.0608C65.0309 79.7621 65.3562 79.5008 65.6976 79.2768C66.0496 79.0528 66.4336 78.8768 66.8496 78.7488C67.2762 78.6208 67.7562 78.5568 68.2896 78.5568C69.0362 78.5568 69.6549 78.6848 70.1456 78.9408C70.6362 79.1968 71.0202 79.5328 71.2976 79.9488C71.5856 80.3648 71.7882 80.8234 71.9056 81.3248C72.0229 81.8154 72.0816 82.2954 72.0816 82.7648V86.5728H60.0176ZM62.2256 85.2448V78.5568H63.7136V85.2448H62.2256ZM60.0176 86.5728C59.8789 86.5728 59.7936 86.5141 59.7616 86.3968C59.7189 86.2688 59.6976 86.1034 59.6976 85.9008C59.6976 85.6981 59.7189 85.5381 59.7616 85.4208C59.7936 85.3034 59.8789 85.2448 60.0176 85.2448V86.5728ZM73.7936 86.5728V85.2448C73.9322 85.2448 74.0176 85.3034 74.0496 85.4208C74.0922 85.5381 74.1136 85.6981 74.1136 85.9008C74.1136 86.1034 74.0922 86.2688 74.0496 86.3968C74.0176 86.5141 73.9322 86.5728 73.7936 86.5728ZM81.8148 86.5728V85.2448H83.5428V86.5728H81.8148ZM73.7988 86.5728V85.2448H80.8068L80.3268 85.6448V81.9488C80.3268 81.2768 80.1135 80.7701 79.6868 80.4288C79.2708 80.0874 78.6201 79.9168 77.7348 79.9168C77.4681 79.9168 77.0841 79.9381 76.5828 79.9808C76.0921 80.0234 75.5695 80.0874 75.0148 80.1728L74.8548 78.9568C75.2921 78.8501 75.7668 78.7594 76.2788 78.6848C76.7908 78.5994 77.2868 78.5568 77.7668 78.5568C78.5988 78.5568 79.3135 78.6901 79.9108 78.9568C80.5188 79.2234 80.9881 79.6128 81.3188 80.1248C81.6495 80.6261 81.8148 81.2341 81.8148 81.9488V86.5728H73.7988ZM73.7988 86.5728C73.6601 86.5728 73.5748 86.5141 73.5428 86.3968C73.5001 86.2688 73.4788 86.1034 73.4788 85.9008C73.4788 85.6981 73.5001 85.5381 73.5428 85.4208C73.5748 85.3034 73.6601 85.2448 73.7988 85.2448V86.5728ZM83.5428 86.5728V85.2448C83.6708 85.2448 83.7561 85.3034 83.7988 85.4208C83.8415 85.5381 83.8628 85.6981 83.8628 85.9008C83.8628 86.1034 83.8415 86.2688 83.7988 86.3968C83.7561 86.5141 83.6708 86.5728 83.5428 86.5728ZM77.0148 77.4208V75.8688H78.5188V77.4208H77.0148ZM86.9408 86.5728V85.2448H88.6688V86.5728H86.9408ZM85.4528 86.5728V75.1488H86.9408V86.5728H85.4528ZM83.5488 86.5728V85.2448H85.4528V86.5728H83.5488ZM83.5488 86.5728C83.4101 86.5728 83.3248 86.5141 83.2928 86.3968C83.2501 86.2688 83.2288 86.1034 83.2288 85.9008C83.2288 85.6981 83.2501 85.5381 83.2928 85.4208C83.3248 85.3034 83.4101 85.2448 83.5488 85.2448V86.5728ZM88.6688 86.5728V85.2448C88.7968 85.2448 88.8821 85.3034 88.9248 85.4208C88.9675 85.5381 88.9888 85.6981 88.9888 85.9008C88.9888 86.1034 88.9675 86.2688 88.9248 86.3968C88.8821 86.5141 88.7968 86.5728 88.6688 86.5728ZM88.6738 86.5728V85.2448H97.2978L96.3538 85.9488V82.6368C96.3538 81.9328 96.2738 81.3834 96.1138 80.9888C95.9645 80.5941 95.6978 80.3114 95.3138 80.1408C94.9298 79.9701 94.4071 79.8848 93.7458 79.8848C93.2978 79.8848 92.8551 79.9168 92.4178 79.9808C91.9805 80.0448 91.6391 80.1301 91.3938 80.2368L92.3058 79.3408C92.2418 79.5861 92.1778 79.9008 92.1138 80.2848C92.0498 80.6688 91.9965 81.0848 91.9538 81.5328C91.9111 81.9701 91.8898 82.4074 91.8898 82.8448C91.8898 83.2821 91.9111 83.7141 91.9538 84.1408C91.9965 84.5674 92.0445 84.9408 92.0978 85.2608C92.1511 85.5808 92.1938 85.7994 92.2258 85.9168L90.8018 86.3168C90.7591 86.1781 90.7058 85.9381 90.6418 85.5968C90.5885 85.2554 90.5351 84.8448 90.4818 84.3648C90.4391 83.8848 90.4178 83.3781 90.4178 82.8448C90.4178 82.3221 90.4391 81.8154 90.4818 81.3248C90.5351 80.8234 90.5938 80.3701 90.6578 79.9648C90.7325 79.5594 90.8018 79.2341 90.8658 78.9888C91.1111 78.8928 91.4898 78.7968 92.0018 78.7008C92.5245 78.6048 93.1058 78.5568 93.7458 78.5568C94.6525 78.5568 95.4098 78.6901 96.0178 78.9568C96.6365 79.2234 97.0951 79.6554 97.3938 80.2528C97.7031 80.8394 97.8578 81.6341 97.8578 82.6368V86.5728H88.6738ZM88.6738 86.5728C88.5351 86.5728 88.4498 86.5141 88.4178 86.3968C88.3751 86.2688 88.3538 86.1034 88.3538 85.9008C88.3538 85.6981 88.3751 85.5381 88.4178 85.4208C88.4498 85.3034 88.5351 85.2448 88.6738 85.2448V86.5728Z"/><rect width="32.712" height="42.176" x=".505" y=".255" stroke="#4BB748" stroke-width=".8" rx="1.6" transform="matrix(0.951248 -0.31069 0.31233 0.949234 99.7222 48.9337)"/><path stroke="#4BB748" stroke-linecap="round" stroke-opacity=".1" stroke-width="2" d="M108.576 58.7944L116.736 55.987"/><path stroke="#4BB748" stroke-linecap="round" stroke-opacity=".1" stroke-width="2" d="M109.523 63.2231L130.982 56.0905"/><path stroke="#4BB748" stroke-linecap="round" stroke-opacity=".1" stroke-width="2" d="M111.771 67.2124L119.931 64.405"/><path stroke="#4BB748" stroke-linecap="round" stroke-opacity=".1" stroke-width="2" d="M114.078 72.8096L134.99 65.7277"/><path stroke="#4BB748" stroke-linecap="round" stroke-opacity=".1" stroke-width="2" d="M114.911 77.2451L123.071 74.4377"/></svg>